<svg width="1024" height="1024" viewBox="0 0 1024 1024" fill="none" xmlns="http://www.w3.org/2000/svg">
<rect width="1024" height="1024" rx="201" fill="white"/>
<path d="M417.358 702.891H558.501C558.501 702.891 607.412 702.891 607.412 741.321C607.412 774.161 558.501 774.161 558.501 774.161H448.102C448.102 774.161 417.358 774.161 417.358 808.399C417.358 841.239 448.102 841.239 448.102 841.239H512.385H607.412" stroke="#00CC99" stroke-width="50.5839" stroke-linecap="round" stroke-linejoin="round"/>
<path d="M427.303 619.884C427.303 477.344 319 519.821 319 357.234C319 277.522 389.572 183 520.933 183C652.294 183 704 277.522 704 357.234C704 521.578 602.684 483.632 602.684 619.884" stroke="#00CC99" stroke-width="70.2555" stroke-linecap="round"/>
</svg>
